<svg xmlns="http://www.w3.org/2000/svg"  viewBox="0 0 80 80" width="80px" height="80px"><path d="M 34 10 C 28.486 10 24 14.486 24 20 C 24 20.553 24.448 21 25 21 L 39 21 L 39 24 L 21 24 C 14.935 24 10 28.935 10 35 L 10 45 C 10 51.065 14.935 56 21 56 L 24 56 L 24 60 C 24 65.514 28.486 70 34 70 L 46 70 C 51.514 70 56 65.514 56 60 C 56 59.447 55.552 59 55 59 L 41 59 L 41 56 L 59 56 C 65.065 56 70 51.065 70 45 L 70 35 C 70 28.935 65.065 24 59 24 L 56 24 L 56 20 C 56 14.486 51.514 10 46 10 L 34 10 z M 34 12 L 46 12 C 50.411 12 54 15.589 54 20 L 54 24.876953 L 54 25 C 54 25.553 54.448 26 55 26 L 59 26 C 63.962 26 68 30.037 68 35 L 68 45 C 68 49.963 63.962 54 59 54 L 40 54 C 39.448 54 39 54.447 39 55 L 39 60 C 39 60.553 39.448 61 40 61 L 53.9375 61 C 53.4435 64.94 50.072 68 46 68 L 34 68 C 29.589 68 26 64.411 26 60 L 26 55 C 26 54.944433 25.977448 54.896831 25.96875 54.84375 C 25.939723 54.666603 25.870759 54.50774 25.761719 54.375 C 25.741426 54.350297 25.731515 54.317559 25.708984 54.294922 C 25.708368 54.294242 25.707649 54.293645 25.707031 54.292969 C 25.614695 54.200696 25.503401 54.126806 25.380859 54.076172 C 25.361596 54.068212 25.338205 54.071222 25.318359 54.064453 C 25.216976 54.029875 25.113067 54 25 54 L 24.869141 54 L 21 54 C 16.038 54 12 49.963 12 45 L 12 35 C 12 30.037 16.038 26 21 26 L 40 26 C 40.552 26 41 25.553 41 25 L 41 20 C 41 19.447 40.552 19 40 19 L 26.0625 19 C 26.5565 15.06 29.928 12 34 12 z M 32 14 A 2 2 0 0 0 32 18 A 2 2 0 0 0 32 14 z M 55 27.777344 C 54.45 27.777344 54 28.226344 54 28.777344 C 54 29.327344 54.45 29.777344 55 29.777344 C 55.55 29.777344 56 29.327344 56 28.777344 C 56 28.226344 55.55 27.777344 55 27.777344 z M 55.060547 31.646484 C 54.510547 31.596484 54.020469 31.996875 53.980469 32.546875 C 53.930469 33.096875 54.330859 33.586719 54.880859 33.636719 L 54.970703 33.636719 C 55.480703 33.636719 55.920703 33.247563 55.970703 32.726562 C 56.020703 32.176563 55.610547 31.697484 55.060547 31.646484 z M 53.458984 35.208984 C 53.205234 35.245359 52.965781 35.378156 52.800781 35.597656 C 52.470781 36.037656 52.56 36.666094 53 36.996094 C 53.18 37.136094 53.389609 37.197266 53.599609 37.197266 C 53.909609 37.197266 54.210391 37.056875 54.400391 36.796875 C 54.730391 36.356875 54.639219 35.726484 54.199219 35.396484 C 53.979219 35.231484 53.712734 35.172609 53.458984 35.208984 z M 50.59375 37.513672 C 50.463125 37.510859 50.329219 37.535391 50.199219 37.587891 L 50.199219 37.576172 C 49.689219 37.786172 49.440625 38.366953 49.640625 38.876953 C 49.800625 39.276953 50.170313 39.517578 50.570312 39.517578 C 50.690313 39.517578 50.819453 39.487266 50.939453 39.447266 L 50.939453 39.4375 C 51.449453 39.2385 51.7 38.657484 51.5 38.146484 C 51.35 37.763984 50.985625 37.522109 50.59375 37.513672 z M 35.179688 37.996094 C 34.629688 37.996094 34.179688 38.446094 34.179688 38.996094 C 34.179688 39.546094 34.629688 39.996094 35.179688 39.996094 C 35.729687 39.996094 36.179688 39.546094 36.179688 38.996094 C 36.179688 38.446094 35.729687 37.996094 35.179688 37.996094 z M 39.039062 37.996094 C 38.489063 37.996094 38.039062 38.446094 38.039062 38.996094 C 38.039062 39.546094 38.489063 39.996094 39.039062 39.996094 C 39.599063 39.996094 40.039062 39.546094 40.039062 38.996094 C 40.039062 38.446094 39.599063 37.996094 39.039062 37.996094 z M 42.900391 37.996094 C 42.350391 37.996094 41.900391 38.446094 41.900391 38.996094 C 41.900391 39.546094 42.350391 39.996094 42.900391 39.996094 C 43.460391 39.996094 43.910156 39.546094 43.910156 38.996094 C 43.910156 38.446094 43.460391 37.996094 42.900391 37.996094 z M 46.769531 37.996094 C 46.219531 37.996094 45.769531 38.446094 45.769531 38.996094 C 45.769531 39.546094 46.219531 39.996094 46.769531 39.996094 C 47.319531 39.996094 47.769531 39.546094 47.769531 38.996094 C 47.769531 38.446094 47.319531 37.996094 46.769531 37.996094 z M 31.220703 38.037109 C 30.670703 38.087109 30.270312 38.576953 30.320312 39.126953 C 30.370312 39.645953 30.810547 40.027344 31.310547 40.027344 L 31.410156 40.027344 C 31.960156 39.976344 32.370547 39.486547 32.310547 38.935547 C 32.260547 38.386547 31.770703 37.976109 31.220703 38.037109 z M 27.900391 39.433594 C 27.646641 39.399969 27.380156 39.461953 27.160156 39.626953 C 26.720156 39.956953 26.640703 40.587344 26.970703 41.027344 C 27.170703 41.287344 27.469531 41.426781 27.769531 41.425781 C 27.979531 41.425781 28.189141 41.356797 28.369141 41.216797 C 28.809141 40.886797 28.900547 40.256406 28.560547 39.816406 C 28.395547 39.596906 28.154141 39.467219 27.900391 39.433594 z M 25.441406 42.46875 C 25.05375 42.480984 24.689062 42.722969 24.539062 43.105469 C 24.339062 43.616469 24.589375 44.197484 25.109375 44.396484 C 25.229375 44.447484 25.350703 44.466797 25.470703 44.466797 C 25.870703 44.466797 26.250391 44.225172 26.400391 43.826172 C 26.600391 43.315172 26.350078 42.737109 25.830078 42.537109 C 25.702578 42.486859 25.570625 42.464672 25.441406 42.46875 z M 25 46.277344 C 24.45 46.277344 24 46.716344 24 47.277344 C 24 47.827344 24.45 48.277344 25 48.277344 C 25.55 48.277344 26 47.827344 26 47.277344 C 26 46.716344 25.55 46.277344 25 46.277344 z M 25 50.136719 C 24.45 50.136719 24 50.586719 24 51.136719 C 24 51.686719 24.45 52.136719 25 52.136719 C 25.55 52.136719 26 51.686719 26 51.136719 C 26 50.586719 25.55 50.136719 25 50.136719 z M 48 62 A 2 2 0 0 0 48 66 A 2 2 0 0 0 48 62 z"/></svg>