<svg xmlns="http://www.w3.org/2000/svg" xmlns:xlink="http://www.w3.org/1999/xlink" viewBox="0,0,256,256" width="80px" height="80px"><g fill="#ffffff" fill-rule="nonzero" stroke="none" stroke-width="1" stroke-linecap="butt" stroke-linejoin="miter" stroke-miterlimit="10" stroke-dasharray="" stroke-dashoffset="0" font-family="none" font-weight="none" font-size="none" text-anchor="none" style="mix-blend-mode: normal"><g transform="scale(3.2,3.2)"><path d="M18.98047,6.96094c-0.31199,0.01098 -0.60095,0.16702 -0.78125,0.42188c-0.087,0.11449 -0.14829,0.24639 -0.17969,0.38672l-13.95703,37.88477c-0.15338,0.41625 -0.01423,0.8838 0.3418,1.14844l34.79492,25.84766c0.19178,0.24702 0.48807,0.3901 0.80078,0.38672c0.0202,-0.00004 0.04039,-0.00069 0.06055,-0.00195c0.00195,0.00001 0.00391,0.00001 0.00586,0c0.28995,-0.0159 0.55867,-0.15703 0.73633,-0.38672l34.79297,-25.8457c0.35603,-0.26464 0.49518,-0.73219 0.3418,-1.14844l-13.95898,-37.88867c-0.09129,-0.3996 -0.41718,-0.70304 -0.82227,-0.76562c-0.04263,-0.00734 -0.08569,-0.01191 -0.12891,-0.01367c-0.00521,-0.00004 -0.01042,-0.00004 -0.01562,0c-0.00195,-0.00001 -0.00391,-0.00001 -0.00586,0c-0.00325,-0.00002 -0.00651,-0.00002 -0.00977,0c-0.48198,-0.00062 -0.89585,0.34262 -0.98437,0.81641l-8.26758,25.19727h-23.48828l-8.24414,-25.125c-0.0455,-0.53069 -0.49894,-0.9326 -1.03125,-0.91406zM18.94531,11.03906l7.20508,21.96094h-15.29492zM61.05469,11.03906l8.08984,21.96094h-15.29492zM10.11719,35h16.68945l10.77734,32.84375c-0.24529,-0.02004 -0.49689,0.04396 -0.70312,0.20703c-0.08449,0.06661 -0.14424,0.15097 -0.20117,0.23633l-30.48242,-22.64453zM28.91211,35h22.17578l-11.08789,33.79297zM53.19336,35h16.68945l3.91992,10.64258l-30.1875,22.42578c-0.06377,-0.1201 -0.15031,-0.22925 -0.26562,-0.31836c-0.24735,-0.19604 -0.55882,-0.24072 -0.8457,-0.17383zM67.40625,36.14648c-0.25362,0.03125 -0.49602,0.15805 -0.66602,0.37305c-0.351,0.43 -0.2718,1.06039 0.1582,1.40039c0.181,0.15 0.40209,0.2207 0.62109,0.2207c0.3,0 0.5893,-0.13086 0.7793,-0.38086c0.35,-0.43 0.26984,-1.06016 -0.16016,-1.41016c-0.2145,-0.17 -0.4788,-0.23437 -0.73242,-0.20312zM12.61523,36.17188c-0.255,-0.03 -0.51937,0.03898 -0.73437,0.20898c-0.43,0.34 -0.51016,0.9682 -0.16016,1.4082c0.19,0.25 0.4893,0.38086 0.7793,0.38086c0.22,0 0.43914,-0.0707 0.61914,-0.2207c0.43,-0.34 0.50992,-0.96844 0.16992,-1.39844c-0.175,-0.22 -0.41883,-0.34891 -0.67383,-0.37891zM64.92578,39.28711c-0.25375,0.03125 -0.49601,0.15805 -0.66602,0.37305c-0.35,0.43 -0.26984,1.06039 0.16016,1.40039c0.189,0.15 0.39814,0.21875 0.61914,0.21875c0.3,0 0.59102,-0.12891 0.79102,-0.37891c0.34,-0.44 0.26008,-1.07016 -0.16992,-1.41016c-0.215,-0.17 -0.48063,-0.23437 -0.73437,-0.20312zM15.11328,39.3418c-0.25375,-0.02875 -0.51742,0.03898 -0.73242,0.20898c-0.43,0.34 -0.50992,0.96844 -0.16992,1.39844c0.2,0.25 0.48906,0.38086 0.78906,0.38086c0.22,0 0.43914,-0.07094 0.61914,-0.21094c0.43,-0.34 0.51016,-0.9682 0.16016,-1.4082c-0.17,-0.215 -0.41227,-0.34039 -0.66602,-0.36914zM62.44531,42.42578c-0.25362,0.03125 -0.49601,0.16 -0.66602,0.375c-0.341,0.429 -0.26984,1.05744 0.16016,1.39844c0.191,0.15 0.41014,0.2207 0.61914,0.2207c0.3,0 0.59101,-0.13086 0.79102,-0.38086c0.34,-0.44 0.26008,-1.0682 -0.16992,-1.4082c-0.2145,-0.17 -0.48075,-0.23633 -0.73438,-0.20508zM17.61328,42.50586c-0.25375,-0.03125 -0.51742,0.03508 -0.73242,0.20508c-0.43,0.349 -0.50992,0.9682 -0.16992,1.4082c0.2,0.25 0.49906,0.38086 0.78906,0.38086c0.22,0 0.43914,-0.0717 0.61914,-0.2207c0.43,-0.34 0.51016,-0.96844 0.16016,-1.39844c-0.17,-0.215 -0.41227,-0.34375 -0.66602,-0.375zM59.9668,45.5625c-0.255,0.03012 -0.49602,0.15745 -0.66602,0.37695c-0.34,0.43 -0.26984,1.06039 0.16016,1.40039c0.189,0.15 0.40914,0.2207 0.61914,0.2207c0.3,0 0.58906,-0.13086 0.78906,-0.38086c0.34,-0.439 0.2718,-1.07016 -0.1582,-1.41016c-0.22,-0.17 -0.48914,-0.23716 -0.74414,-0.20703zM20.11523,45.67188c-0.255,-0.02987 -0.51938,0.03898 -0.73437,0.20898c-0.43,0.339 -0.50992,0.96744 -0.16992,1.39844c0.2,0.25 0.49906,0.38086 0.78906,0.38086c0.22,0 0.43914,-0.07094 0.61914,-0.21094c0.43,-0.34 0.50992,-0.96844 0.16992,-1.39844c-0.175,-0.2205 -0.41883,-0.34903 -0.67383,-0.37891zM57.48633,48.70117c-0.255,0.03012 -0.49747,0.15891 -0.66797,0.37891c-0.34,0.429 -0.26812,1.05844 0.17188,1.39844c0.18,0.151 0.40014,0.2207 0.61914,0.2207c0.29,0 0.5793,-0.13063 0.7793,-0.39062c0.34,-0.429 0.27084,-1.05844 -0.16016,-1.39844c-0.2195,-0.1705 -0.48719,-0.23911 -0.74219,-0.20898zM22.61328,48.8418c-0.25375,-0.02875 -0.51742,0.03898 -0.73242,0.20898c-0.43,0.339 -0.51016,0.96744 -0.16016,1.39844c0.19,0.25 0.4793,0.38086 0.7793,0.38086c0.22,0 0.43914,-0.07094 0.61914,-0.21094c0.43,-0.34 0.51016,-0.9692 0.16016,-1.4082c-0.17,-0.215 -0.41227,-0.34039 -0.66602,-0.36914zM55.01172,51.84375c-0.25375,0.03012 -0.49688,0.15745 -0.67187,0.37695c-0.34,0.429 -0.27008,1.05844 0.16992,1.39844c0.179,0.15 0.40109,0.2207 0.62109,0.2207c0.29,0 0.5893,-0.12891 0.7793,-0.37891c0.35,-0.44 0.26984,-1.07016 -0.16016,-1.41016c-0.22,-0.17 -0.48453,-0.23716 -0.73828,-0.20703zM25.11328,52.00195c-0.25375,-0.02987 -0.51742,0.03898 -0.73242,0.20898c-0.43,0.349 -0.50992,0.9772 -0.16992,1.4082c0.2,0.25 0.48906,0.38086 0.78906,0.38086c0.22,0 0.43914,-0.0707 0.61914,-0.2207c0.43,-0.34 0.51016,-0.96844 0.16016,-1.39844c-0.17,-0.2205 -0.41227,-0.34903 -0.66602,-0.37891zM52.53516,54.98242c-0.25487,0.03012 -0.50028,0.15745 -0.67578,0.37695c-0.34,0.43 -0.26108,1.06039 0.16992,1.40039c0.18,0.15 0.40014,0.2197 0.61914,0.2207c0.29,0 0.59225,-0.13086 0.78125,-0.38086c0.351,-0.439 0.27084,-1.06916 -0.16016,-1.41016c-0.215,-0.17 -0.4795,-0.23716 -0.73437,-0.20703zM27.61328,55.17188c-0.25375,-0.02987 -0.51742,0.03898 -0.73242,0.20898c-0.43,0.34 -0.50992,0.9682 -0.16992,1.4082c0.2,0.25 0.49906,0.38086 0.78906,0.38086c0.22,0 0.43914,-0.0717 0.61914,-0.2207c0.43,-0.34 0.51016,-0.96844 0.16016,-1.39844c-0.17,-0.2205 -0.41227,-0.34903 -0.66602,-0.37891zM50.05664,58.12305c-0.25375,0.03 -0.49602,0.15695 -0.66602,0.37695c-0.35,0.429 -0.26984,1.05844 0.16016,1.39844c0.179,0.151 0.39914,0.2207 0.61914,0.2207c0.3,0 0.59101,-0.14062 0.79102,-0.39062c0.34,-0.429 0.25812,-1.05844 -0.17188,-1.39844c-0.215,-0.17 -0.47867,-0.23703 -0.73242,-0.20703zM30.11523,58.33789c-0.255,-0.03 -0.51938,0.03789 -0.73437,0.21289c-0.43,0.339 -0.51016,0.96744 -0.16016,1.39844c0.19,0.25 0.4893,0.38086 0.7793,0.38086c0.22,0 0.43914,-0.07094 0.61914,-0.21094c0.43,-0.35 0.50992,-0.9692 0.16992,-1.4082c-0.175,-0.215 -0.41883,-0.34305 -0.67383,-0.37305zM47.57617,61.26172c-0.25362,0.02875 -0.49602,0.15414 -0.66602,0.36914c-0.351,0.439 -0.2718,1.0682 0.1582,1.4082c0.191,0.14 0.41109,0.21094 0.62109,0.21094c0.301,0 0.59006,-0.13086 0.78906,-0.38086c0.34,-0.43 0.26108,-1.05844 -0.16992,-1.39844c-0.2145,-0.17 -0.4788,-0.23773 -0.73242,-0.20898zM32.61328,61.50586c-0.25375,-0.03125 -0.51742,0.03508 -0.73242,0.20508c-0.43,0.349 -0.50992,0.9682 -0.16992,1.4082c0.2,0.25 0.48906,0.38086 0.78906,0.38086c0.22,0 0.43914,-0.0717 0.61914,-0.2207c0.43,-0.34 0.51016,-0.96844 0.16016,-1.39844c-0.17,-0.215 -0.41227,-0.34375 -0.66602,-0.375zM45.0957,64.40039c-0.25375,0.02875 -0.49601,0.15414 -0.66602,0.36914c-0.34,0.44 -0.26984,1.07016 0.16016,1.41016c0.19,0.139 0.41109,0.21094 0.62109,0.21094c0.3,0 0.58906,-0.13086 0.78906,-0.38086c0.34,-0.429 0.26908,-1.05939 -0.16992,-1.40039c-0.215,-0.17 -0.48063,-0.23773 -0.73437,-0.20898zM35.11328,64.67188c-0.25375,-0.02988 -0.51742,0.03898 -0.73242,0.20898c-0.43,0.339 -0.50992,0.96744 -0.16992,1.39844c0.2,0.26 0.48906,0.39063 0.78906,0.39063c0.22,0 0.43914,-0.0717 0.61914,-0.2207c0.43,-0.34 0.51016,-0.96844 0.16016,-1.39844c-0.17,-0.2205 -0.41227,-0.34903 -0.66602,-0.37891zM41.98242,69.16016c0.02088,0.0249 0.03883,0.05112 0.0625,0.07422l-0.11328,0.08398z"></path></g></g></svg>